<svg preserveAspectRatio="none" width="100%" height="100%" overflow="visible" style="display: block;" viewBox="0 0 57.4183 57.4186" fill="none" xmlns="http://www.w3.org/2000/svg">
<g id="Group">
<path id="Vector" d="M55.7018 23.853C53.8614 22.0123 51.1578 21.6814 49.0196 22.705L34.711 8.39616C35.75 6.21483 35.369 3.52011 33.5655 1.71659C31.277 -0.572197 27.5529 -0.572197 25.2643 1.71659L16.9629 10.0178C14.6744 12.3064 14.6744 16.0303 16.9629 18.3189C18.7619 20.1181 21.4524 20.5077 23.6425 19.4644L26.6478 22.4697L1.72059 47.3969C-0.573355 49.6907 -0.573706 53.4038 1.72059 55.698C4.01454 57.992 7.72751 57.9924 10.0218 55.698L34.949 30.7709L37.9539 33.7757C36.9147 35.9571 37.2957 38.6517 39.0993 40.4554C40.2079 41.564 41.682 42.1748 43.25 42.1748C44.8179 42.1748 46.2918 41.5642 47.4005 40.4554L55.7017 32.1542C57.9905 29.8655 57.9905 26.1417 55.7018 23.853ZM22.4972 15.5519C21.7343 16.3146 20.493 16.3144 19.7301 15.5519C18.9673 14.7889 18.9673 13.5477 19.7301 12.7848L28.0313 4.48362C28.7941 3.72085 30.0352 3.7205 30.7983 4.48362C31.5612 5.24651 31.5612 6.48776 30.7984 7.25065L22.4972 15.5519ZM7.25477 52.9307C6.49001 53.6953 5.25251 53.6955 4.48774 52.9307C3.72309 52.166 3.72297 50.9283 4.48774 50.1637L29.4149 25.2365L32.182 28.0036L7.25477 52.9307ZM26.6478 16.9354L28.0312 15.5517L32.1818 11.4011L46.0172 25.2366L40.4832 30.7708L26.6478 16.9354ZM52.9349 29.3873L44.6337 37.6885C43.869 38.4532 42.6315 38.4532 41.8667 37.6885C41.1038 36.9256 41.1038 35.6842 41.8667 34.9213L50.168 26.6201C50.9325 25.8553 52.1703 25.8555 52.9349 26.6201C53.6997 27.3848 53.6997 28.6224 52.9349 29.3873Z" fill="var(--fill-0, #4846FF)"/>
</g>
</svg>
